<svg width="44" height="64" viewBox="0 0 44 64" fill="none" xmlns="http://www.w3.org/2000/svg">
<path fill-rule="evenodd" clip-rule="evenodd" d="M22.0474 32.0004C22.0474 26.1094 26.823 21.3337 32.714 21.3337C38.6051 21.3337 43.3807 26.1094 43.3807 32.0004C43.3807 37.8914 38.6051 42.6671 32.714 42.6671C26.823 42.6671 22.0474 37.8914 22.0474 32.0004Z" fill="#1ABCFE"/>
<path fill-rule="evenodd" clip-rule="evenodd" d="M0.714355 53.3329C0.714355 47.4419 5.48998 42.6663 11.381 42.6663H22.0477V53.3329C22.0477 59.224 17.2721 63.9996 11.381 63.9996C5.48998 63.9996 0.714355 59.224 0.714355 53.3329Z" fill="#0ACF83"/>
<path fill-rule="evenodd" clip-rule="evenodd" d="M22.0474 0V21.3333H32.714C38.6051 21.3333 43.3807 16.5577 43.3807 10.6667C43.3807 4.77563 38.6051 0 32.714 0H22.0474Z" fill="#FF7262"/>
<path fill-rule="evenodd" clip-rule="evenodd" d="M0.714355 10.6667C0.714355 16.5577 5.48998 21.3333 11.381 21.3333H22.0477V0H11.381C5.48998 0 0.714355 4.77563 0.714355 10.6667Z" fill="#F24E1E"/>
<path fill-rule="evenodd" clip-rule="evenodd" d="M0.714355 32.0004C0.714355 37.8914 5.48998 42.6671 11.381 42.6671H22.0477V21.3337H11.381C5.48998 21.3337 0.714355 26.1094 0.714355 32.0004Z" fill="#A259FF"/>
</svg>
