<svg width="50" height="68" viewBox="0 0 50 68" fill="none" xmlns="http://www.w3.org/2000/svg">
<path d="M25.5442 8.87759L21.8823 15.7853L27.6248 26.9374L33.6171 21.2781L27.4584 8.87759C27.4584 8.87759 27.2113 8.4897 26.959 8.37824C26.8075 8.31126 26.7086 8.30036 26.5429 8.29501C26.3453 8.28864 26.2239 8.29718 26.0436 8.37824C25.792 8.49131 25.5442 8.87759 25.5442 8.87759Z" fill="#FFA611" stroke="#FFA611" stroke-width="2.28571"/>
<path d="M10.2866 2.83225C10.037 3.3316 2.04736 52.9337 2.04736 52.9337L20.6065 18.2289L12.4505 2.6658C12.4505 2.6658 12.1176 2.16645 11.8679 2.08323C11.6182 2.00001 11.7412 1.99999 11.3686 2C11.2021 2 10.8692 2.16645 10.8692 2.16645C10.8692 2.16645 10.5363 2.33291 10.2866 2.83225Z" fill="#FFA715" stroke="#FFA715" stroke-width="2.28571"/>
<path d="M26.4323 29.2983L20.6065 18.2294L2.04736 52.9342L26.4323 29.2983Z" fill="#F5830F" stroke="#F5830F" stroke-width="2.28571"/>
<path d="M40.9137 15.4824L2.13086 52.9336L24.4352 65.8335C24.4352 65.8335 25.0177 66 25.1842 66C25.3506 66 25.5012 65.995 25.85 65.9167C26.1623 65.8466 26.599 65.5838 26.599 65.5838L48.404 52.9336L42.9943 16.3146C42.9943 16.3146 42.8892 15.8745 42.7447 15.6488C42.6078 15.435 42.495 15.3159 42.3285 15.2327C42.0942 15.1155 41.8397 15.1183 41.5795 15.1495C41.2617 15.1875 40.9137 15.4824 40.9137 15.4824Z" fill="#FFCB30" stroke="#FFCB2F" stroke-width="2.28571"/>
</svg>
