<svg width="65" height="64" viewBox="0 0 65 64" fill="none" xmlns="http://www.w3.org/2000/svg">
    <path fill-rule="evenodd" clip-rule="evenodd" d="M32.4038 0C14.7238 0 0.403809 14.6822 0.403809 32.8094C0.403809 47.3276 9.56381 59.5901 22.2838 63.9373C23.8838 64.2244 24.4838 63.2401 24.4838 62.3789C24.4838 61.5997 24.4438 59.0159 24.4438 56.2681C16.4038 57.7856 14.3238 54.2585 13.6838 52.413C13.3238 51.4697 11.7638 48.5579 10.4038 47.7787C9.28381 47.1635 7.68381 45.6461 10.3638 45.6051C12.8838 45.5641 14.6838 47.9837 15.2838 48.968C18.1638 53.9305 22.7638 52.5361 24.6038 51.6748C24.8838 49.5422 25.7238 48.1068 26.6438 47.2866C19.5238 46.4663 12.0838 43.6365 12.0838 31.0869C12.0838 27.5189 13.3238 24.566 15.3638 22.2694C15.0438 21.4491 13.9238 18.0862 15.6838 13.5749C15.6838 13.5749 18.3638 12.7136 24.4838 16.9379C27.0438 16.1996 29.7638 15.8305 32.4838 15.8305C35.2038 15.8305 37.9238 16.1996 40.4838 16.9379C46.6038 12.6726 49.2838 13.5749 49.2838 13.5749C51.0438 18.0862 49.9238 21.4491 49.6038 22.2694C51.6438 24.566 52.8838 27.4779 52.8838 31.0869C52.8838 43.6775 45.4038 46.4663 38.2838 47.2866C39.4438 48.3118 40.4438 50.2804 40.4438 53.3563C40.4438 57.7445 40.4038 61.2716 40.4038 62.3789C40.4038 63.2401 41.0038 64.2654 42.6038 63.9373C48.9563 61.7383 54.4763 57.5523 58.3869 51.9684C62.2975 46.3844 64.4019 39.6838 64.4038 32.8094C64.4038 14.6822 50.0838 0 32.4038 0Z" fill="#808080"/>
</svg>
