<svg width="65" height="64" viewBox="0 0 65 64" fill="none" xmlns="http://www.w3.org/2000/svg">
<rect x="0.714355" width="64" height="64" fill="#FFCA28"/>
<path d="M39.5715 53.2288L44.2836 50.1108C44.6528 51.271 46.9913 54.0264 49.9451 54.0264C52.899 54.0264 54.2704 52.4131 54.2704 51.3435C54.2704 48.4288 51.2542 47.4011 49.8055 46.9075C49.5693 46.8271 49.3748 46.7608 49.2418 46.7029C49.1736 46.6732 49.0705 46.6337 48.9381 46.5832C47.3269 45.9676 41.3825 43.6965 41.3825 37.1134C41.3825 29.8623 48.3803 29.0284 49.9627 29.0284C50.998 29.0284 55.9759 29.1553 58.455 33.8141L53.8836 37.0046C52.8814 34.9743 51.2163 34.3036 50.1913 34.3036C47.6594 34.3036 47.1319 36.1597 47.1319 37.0046C47.1319 39.3754 49.8827 40.438 52.2054 41.3352C52.8131 41.5699 53.3914 41.7934 53.8836 42.0259C56.4155 43.2224 60.1429 45.1801 60.1429 51.3435C60.1429 54.4306 57.5536 59.4284 51.0352 59.4284C42.2792 59.4284 39.9583 54.1714 39.5715 53.2288Z" fill="#3E3E3E"/>
<path d="M16.7144 53.848L21.6256 50.7316C22.0104 51.8912 23.5058 54.0292 25.6756 54.0292C27.8453 54.0292 28.9558 51.8006 28.9558 50.7316V29.7142H34.996V50.7316C35.0937 53.6305 33.4859 59.4285 26.3903 59.4285C19.8664 59.4285 17.1542 55.5511 16.7144 53.848Z" fill="#3E3E3E"/>
</svg>
