<svg width="65" height="64" viewBox="0 0 65 64" fill="none" xmlns="http://www.w3.org/2000/svg">
<path d="M48.3849 2.55267C48.3849 0.543614 46.1355 0.54359 45.1357 0.794722C46.5354 -0.310259 48.1766 -0.0423594 48.7598 0.292484L62.276 6.91992C63.5639 7.55142 64.3809 8.86538 64.3809 10.3053V53.9043C64.3809 55.3635 63.5422 56.6914 62.2282 57.3127L49.5096 63.3265C48.6349 63.7032 46.7353 64.6324 45.1357 63.3265C47.1352 63.7032 48.2183 62.2801 48.3849 61.3175V2.55267Z" fill="#32B5F1"/>
<path d="M45.2979 0.758618C46.359 0.548935 48.3849 0.646175 48.3849 2.55279V17.5601L7.4062 48.5607C6.68993 49.1026 5.68189 49.0127 5.07181 48.3525L0.848362 43.7824C0.18672 43.0665 0.233014 41.9458 0.951428 41.2874L45.1357 0.794838L45.2979 0.758618Z" fill="#0F6FB3"/>
<path d="M48.3849 46.5612L7.4062 15.5606C6.68993 15.0187 5.68189 15.1086 5.0718 15.7688L0.848362 20.3389C0.18672 21.0548 0.233014 22.1755 0.951428 22.8339L45.1357 63.3265V63.3265C47.1352 63.7032 48.2183 62.28 48.3849 61.3174V46.5612Z" fill="#1180CE"/>
</svg>
